<?xml version="1.0" encoding="UTF-8"?>
<svg width="386px" height="140px" viewBox="0 0 386 140" version="1.1" xmlns="http://www.w3.org/2000/svg" xmlns:xlink="http://www.w3.org/1999/xlink">
    <title>Group 2</title>
    <defs>
        <radialGradient cx="50%" cy="0%" fx="50%" fy="0%" r="248.533062%" gradientTransform="translate(0.500000,0.000000),scale(1.000000,0.393939),rotate(90.000000),translate(-0.500000,-0.000000)" id="radialGradient-1">
            <stop stop-color="#FE84FC" offset="0%"></stop>
            <stop stop-color="#2ED1FF" offset="100%"></stop>
        </radialGradient>
    </defs>
    <g id="logos" stroke="none" stroke-width="1" fill="none" fill-rule="evenodd">
        <g id="Group" transform="translate(0.000000, -251.000000)">
            <g id="Group-2" transform="translate(0.000000, 251.000000)">
                <g id="Flux-Logo-New" transform="translate(70.000000, 70.000000) rotate(90.000000) translate(-70.000000, -70.000000) ">
                    <circle id="Oval" fill="#FFFFFF" cx="70" cy="70" r="70"></circle>
                    <rect id="Rectangle" fill="#0F0E25" transform="translate(70.000000, 83.000000) rotate(90.000000) translate(-70.000000, -83.000000) " x="57" y="50" width="26" height="66" rx="13"></rect>
                    <path d="M50,30 C57.1797017,30 63,35.8202983 63,43 L63,96 L63,96 L50,96 C42.8202983,96 37,90.1797017 37,83 L37,43 C37,35.8202983 42.8202983,30 50,30 Z" id="Rectangle" fill="#0F0E25"></path>
                    <path d="M63,44 L76,44 C83.1797017,44 89,49.8202983 89,57 L89,97 C89,104.179702 83.1797017,110 76,110 C68.8202983,110 63,104.179702 63,97 L63,44 L63,44 Z" id="Rectangle" fill="url(#radialGradient-1)"></path>
                </g>
                <path d="M217.20202,25 C225.951515,25 232.852525,26.3557423 240,27.9579832 L240,113 L221.515151,113 L221.515151,41.1456583 C220.036364,41.022409 218.557576,41.022409 217.20202,41.022409 C210.30101,41.022409 205.741414,44.2268908 205.741414,51.3753501 L214.737374,51.3753501 L214.737374,69.1232493 L205.741414,69.1232493 L205.741414,113 L187.256566,113 L187.256566,69.1232493 L179,69.1232493 L179,51.3753501 L187.256566,51.3753501 C187.256566,34.1204482 196.745455,25 217.20202,25 Z M294.9375,52 L314,52 L314,114.256809 L294.9375,114.256809 L294.9375,108.404669 C291.50625,113.011673 285.152083,116 276.764583,116 C263.929167,116 253,107.035019 253,90.2256809 L253,52 L272.0625,52 L272.0625,87.4863813 C272.0625,95.2062257 277.01875,98.8171206 283.11875,98.8171206 C290.108333,98.8171206 294.9375,94.8326848 294.9375,85.9922179 L294.9375,52 Z M386,113 L364.581132,113 L353,96.632 L341.418868,113 L320,113 L342.290566,81.504 L320.74717,51 L342.166038,51 L353,66.376 L363.833962,51 L385.25283,51 L363.709434,81.504 L386,113 Z" id="fux" fill="#FFFFFF" fill-rule="nonzero"></path>
            </g>
        </g>
    </g>
</svg>