<?xml version="1.0" standalone="no"?>
<!DOCTYPE svg PUBLIC "-//W3C//DTD SVG 20010904//EN"
 "http://www.w3.org/TR/2001/REC-SVG-20010904/DTD/svg10.dtd">
<svg version="1.0" xmlns="http://www.w3.org/2000/svg"
 width="260.000000pt" height="260.000000pt" viewBox="0 0 260.000000 260.000000"
 preserveAspectRatio="xMidYMid meet">
<metadata>
Created by potrace 1.11, written by Peter Selinger 2001-2013
</metadata>
<g transform="translate(0.000000,260.000000) scale(0.100000,-0.100000)"
fill="#000000" stroke="none">
<path d="M1165 2593 c-550 -69 -988 -449 -1124 -974 -177 -688 247 -1399 940
-1578 688 -177 1399 247 1578 940 175 681 -235 1382 -921 1573 -131 37 -349
55 -473 39z m-10 -517 c19 -10 18 -11 -9 -14 -41 -5 -76 6 -76 24 0 12 7 14
33 9 17 -4 41 -12 52 -19z m-159 -7 c24 -6 44 -15 44 -20 0 -5 7 -9 16 -9 8 0
12 -4 9 -10 -3 -5 -17 -10 -31 -10 -13 0 -24 -4 -24 -10 0 -10 24 -15 45 -10
6 2 26 2 45 1 151 -8 171 -17 191 -85 10 -33 22 -49 48 -65 l36 -21 -35 0
c-19 0 -43 -7 -53 -15 -11 -7 -25 -11 -33 -8 -8 3 -14 -1 -14 -11 0 -10 -5
-13 -17 -9 -15 6 -16 4 -6 -8 7 -8 28 -21 48 -29 34 -14 35 -15 35 -72 0 -54
2 -58 26 -64 14 -4 113 -4 220 -1 163 5 202 4 234 -9 l38 -16 6 -71 c7 -80 4
-107 -10 -108 -25 -2 -90 13 -102 24 -10 8 -80 13 -213 15 l-199 4 0 30 0 30
-47 -7 c-51 -7 -212 -14 -363 -15 -58 0 -89 -4 -80 -9 21 -12 228 -31 346 -31
127 0 144 -5 144 -39 l0 -26 137 5 c102 4 145 3 163 -7 14 -7 36 -13 50 -13
14 0 34 -6 45 -13 11 -7 35 -14 54 -15 18 -2 42 -7 52 -12 16 -9 19 -6 25 17
3 16 6 31 7 34 1 4 14 -13 29 -37 l27 -44 -27 -1 c-15 -1 -30 -1 -34 0 -4 0
-6 -31 -5 -69 1 -39 5 -70 9 -70 12 0 9 -38 -2 -45 -17 -11 -11 -262 6 -280 8
-7 14 -22 14 -32 1 -17 1 -17 14 0 14 18 36 23 36 8 0 -5 -7 -12 -16 -15 -8
-3 -13 -10 -10 -14 3 -5 -8 -22 -24 -37 -17 -16 -30 -36 -30 -44 0 -35 -74
-141 -97 -141 -7 0 -13 -4 -13 -9 0 -21 -56 -32 -103 -20 -26 6 -47 15 -47 20
0 5 -7 9 -16 9 -8 0 -12 5 -9 10 3 6 17 10 31 10 13 0 24 5 24 10 0 11 4 11
-110 12 -112 0 -143 14 -172 74 -17 36 -34 54 -67 71 l-44 23 44 0 c24 1 55 7
68 14 14 8 31 12 38 9 7 -3 13 2 13 11 0 10 5 13 18 9 14 -6 15 -4 5 8 -7 8
-28 21 -48 29 -34 14 -35 15 -35 72 0 54 -2 58 -26 64 -14 4 -113 4 -221 1
-242 -8 -267 -1 -277 70 -3 25 -6 67 -6 93 0 38 -7 59 -34 99 -26 39 -31 51
-19 51 14 0 14 3 -2 20 -16 18 -16 20 -2 20 10 0 17 -4 17 -10 0 -5 5 -10 10
-10 6 0 10 5 10 11 0 6 6 17 14 24 19 20 23 255 4 284 -10 17 -10 25 0 41 7
12 10 25 6 31 -3 6 -3 22 0 36 7 24 8 25 79 19 71 -5 56 2 -35 18 -24 5 -38
12 -38 22 0 8 -4 13 -8 10 -4 -2 -14 -1 -21 3 -11 7 -9 13 8 30 11 11 21 29
21 39 1 43 70 152 98 152 7 0 12 4 12 8 0 9 37 30 53 31 5 1 28 -4 53 -10z
m-302 -301 c7 -22 7 -22 16 -3 8 19 9 19 9 -2 1 -12 -3 -25 -9 -28 -11 -7 -62
40 -53 49 13 13 31 5 37 -16z m-120 -49 c9 7 16 -6 30 -52 33 -116 34 -117 34
-34 0 84 7 103 25 72 29 -49 34 -134 11 -196 -26 -71 -33 -99 -26 -99 4 0 17
26 30 58 17 44 22 79 22 143 0 87 12 120 34 96 17 -18 3 -191 -21 -255 -20
-57 -40 -77 -59 -61 -9 7 -14 4 -19 -10 -7 -24 -21 -27 -28 -8 -4 9 -8 9 -15
-2 -16 -22 -22 3 -11 43 6 20 8 43 6 49 -2 7 -8 -5 -12 -26 -4 -20 -11 -39
-15 -42 -5 -3 -21 20 -35 50 -21 43 -26 63 -21 92 4 21 7 53 6 72 0 34 41 132
48 111 3 -7 8 -8 16 -1z m159 -330 c4 -16 3 -18 -9 -8 -16 13 -19 29 -5 29 5
0 11 -9 14 -21z m1193 -156 c-26 -28 -46 -24 -45 10 0 19 1 19 7 4 7 -16 9
-16 25 3 10 12 22 18 27 15 5 -3 -1 -18 -14 -32z m115 -32 c0 8 6 3 12 -11 6
-14 16 -28 21 -32 6 -4 11 -28 13 -55 2 -26 6 -65 9 -86 5 -29 0 -50 -21 -92
-14 -30 -30 -53 -35 -50 -4 3 -11 22 -15 42 -4 21 -10 33 -12 26 -2 -6 0 -29
6 -49 11 -39 5 -66 -10 -43 -8 12 -11 11 -19 -1 -9 -13 -11 -13 -20 0 -5 8
-10 21 -10 27 0 7 -12 47 -26 89 -22 63 -26 87 -20 137 6 57 18 87 37 87 4 0
9 -35 11 -77 2 -63 5 -72 11 -48 40 142 41 144 54 133 10 -8 13 -7 14 3z
m-141 -119 c0 -66 5 -95 26 -144 25 -61 22 -90 -7 -66 -29 23 -58 128 -60 213
0 44 2 88 6 98 7 17 8 17 21 0 9 -12 13 -47 14 -101z m-10 -201 c0 -5 -6 -14
-14 -20 -12 -10 -13 -8 -9 8 5 21 23 30 23 12z m-376 -347 c20 -8 21 -34 1
-34 -19 0 -85 27 -85 34 0 8 64 8 84 0z"/>
<path d="M1075 1970 c21 -24 26 -25 19 -6 -3 8 -13 17 -22 21 -13 5 -13 2 3
-15z"/>
<path d="M1144 1875 c-9 -14 -25 -25 -36 -25 -17 0 -18 -3 -8 -15 11 -13 9
-15 -13 -15 -29 0 -56 -25 -35 -33 7 -3 -7 -6 -32 -6 -68 -2 -81 -16 -26 -30
50 -12 86 -14 110 -5 15 6 15 8 -1 20 -17 13 -17 13 0 14 10 0 15 5 12 10 -4
6 5 10 19 10 14 0 26 5 26 10 0 6 14 10 30 10 23 0 33 6 40 24 5 13 14 27 20
31 19 12 -9 25 -52 25 -29 0 -41 -6 -54 -25z"/>
<path d="M960 1850 c0 -5 9 -10 20 -10 11 0 20 5 20 10 0 6 -9 10 -20 10 -11
0 -20 -4 -20 -10z"/>
<path d="M780 1843 c1 -18 28 -43 46 -43 18 1 18 1 -1 15 -11 8 -26 19 -32 25
-7 6 -13 7 -13 3z"/>
<path d="M888 1803 c6 -2 18 -2 25 0 6 3 1 5 -13 5 -14 0 -19 -2 -12 -5z"/>
<path d="M775 1239 c-8 -37 0 -44 58 -53 23 -4 47 -12 55 -19 10 -8 80 -13
213 -15 l199 -4 0 -30 0 -30 47 7 c51 7 212 14 363 15 58 0 89 4 80 9 -21 12
-227 31 -337 31 -129 0 -153 6 -153 39 l0 26 -137 -5 c-102 -4 -145 -3 -163 7
-14 7 -36 13 -50 13 -14 0 -34 6 -45 14 -11 7 -27 13 -35 13 -8 0 -31 3 -52 7
-35 6 -37 5 -43 -25z"/>
<path d="M1492 853 c-10 -4 -9 -8 5 -19 17 -13 17 -13 0 -14 -10 0 -15 -4 -12
-10 4 -6 -5 -10 -19 -10 -14 0 -26 -4 -26 -10 0 -5 -14 -10 -30 -10 -23 0 -33
-6 -40 -24 -5 -13 -14 -27 -20 -31 -19 -12 9 -25 52 -25 29 0 41 6 54 25 9 14
25 25 36 25 17 0 18 3 8 15 -11 13 -9 15 13 15 29 0 56 25 35 33 -7 3 7 6 32
6 68 2 81 16 26 30 -47 11 -92 13 -114 4z"/>
<path d="M1744 825 c62 -13 88 -13 75 -1 -2 2 -35 7 -74 10 l-70 5 69 -14z"/>
<path d="M1688 793 c6 -2 18 -2 25 0 6 3 1 5 -13 5 -14 0 -19 -2 -12 -5z"/>
<path d="M1775 785 c11 -8 26 -19 33 -25 16 -14 15 0 -2 23 -7 9 -22 17 -32
17 -18 -1 -18 -1 1 -15z"/>
<path d="M1600 750 c0 -5 9 -10 20 -10 11 0 20 5 20 10 0 6 -9 10 -20 10 -11
0 -20 -4 -20 -10z"/>
<path d="M1506 636 c3 -8 13 -17 22 -21 13 -5 13 -2 -3 15 -21 24 -26 25 -19
6z"/>
<path d="M560 1665 c0 -8 -7 -15 -15 -15 -8 0 -15 -4 -15 -10 0 -5 4 -10 9
-10 5 0 11 -7 15 -15 3 -8 2 -14 -2 -12 -12 4 -10 -17 3 -35 10 -15 12 -7 12
47 0 36 -2 65 -4 65 -1 0 -3 -7 -3 -15z"/>
<path d="M2031 1144 c0 -11 3 -14 6 -6 3 7 2 16 -1 19 -3 4 -6 -2 -5 -13z"/>
<path d="M2043 1118 c-5 -7 -10 -31 -10 -53 l-1 -39 18 24 c17 22 17 26 3 31
-14 5 -14 7 1 21 9 9 16 19 16 22 0 11 -17 6 -27 -6z"/>
</g>
</svg>
